<svg width="30" height="37" viewBox="0 0 30 37" fill="none" xmlns="http://www.w3.org/2000/svg">
<path d="M7.28571 5.27787C5.37961 5.27933 4.3805 5.30305 3.60604 5.68954C2.88026 6.05171 2.29019 6.62964 1.92041 7.34048C1.5 8.14859 1.5 9.20646 1.5 11.3222V29.4556C1.5 31.5713 1.5 32.6293 1.92041 33.4373C2.29019 34.1481 2.88026 34.7261 3.60604 35.0882C4.43112 35.5 5.51122 35.5 7.67143 35.5H22.3286C24.4888 35.5 25.569 35.5 26.394 35.0882C27.1197 34.7261 27.7099 34.1481 28.0796 33.4373C28.5 32.6293 28.5 31.5713 28.5 29.4556V11.3222C28.5 9.20646 28.5 8.14859 28.0796 7.34048C27.7099 6.62964 27.1197 6.05171 26.394 5.68954C25.6195 5.30305 24.6205 5.27933 22.7143 5.27787M7.28571 5.27787V9.05556H22.7143V5.27787M7.28571 5.27787V4.72454C7.28571 3.86933 7.63259 3.04915 8.25 2.44444C8.86741 1.83974 9.70482 1.5 10.578 1.5H19.422C20.2951 1.5 21.1327 1.83974 21.75 2.44444C22.3673 3.04915 22.7143 3.86933 22.7143 4.72454V5.27787M15 24.1667H9.21429M20.7857 16.6111H9.21429" stroke="white" stroke-width="3" stroke-linecap="round" stroke-linejoin="round"/>
</svg>
