<svg width="39" height="36" viewBox="0 0 39 36" fill="none" xmlns="http://www.w3.org/2000/svg">
<path d="M31.5 9.75V8.1C31.5 5.78979 31.5 4.63467 31.064 3.75229C30.6806 2.97611 30.0686 2.34507 29.316 1.9496C28.4604 1.5 27.3402 1.5 25.1 1.5H7.9C5.65978 1.5 4.53968 1.5 3.68404 1.9496C2.93138 2.34507 2.31946 2.97611 1.93598 3.75229C1.5 4.63467 1.5 5.78979 1.5 8.1V9.75M1.5 9.75V27.9C1.5 30.2102 1.5 31.3654 1.93598 32.2478C2.31946 33.0239 2.93138 33.655 3.68404 34.0504C4.53968 34.5 5.65978 34.5 7.9 34.5H31.1C33.3402 34.5 34.4604 34.5 35.316 34.0504C36.0686 33.655 36.6806 33.0239 37.064 32.2478C37.5 31.3654 37.5 30.2102 37.5 27.9V16.35C37.5 14.0398 37.5 12.8847 37.064 12.0023C36.6806 11.2261 36.0686 10.5951 35.316 10.1996C34.4604 9.75 33.3402 9.75 31.1 9.75H1.5ZM37.5 18H33.5C31.2908 18 29.5 19.8468 29.5 22.125C29.5 24.4032 31.2908 26.25 33.5 26.25H37.5" stroke="white" stroke-width="3" stroke-linecap="round" stroke-linejoin="round"/>
</svg>
