<svg width="38" height="38" viewBox="0 0 38 38" fill="none" xmlns="http://www.w3.org/2000/svg">
<path d="M25.0568 19.0001C25.0568 22.3457 22.3448 25.0578 18.9991 25.0578C15.6534 25.0578 12.9414 22.3457 12.9414 19.0001C12.9414 15.6544 15.6534 12.9424 18.9991 12.9424C22.3448 12.9424 25.0568 15.6544 25.0568 19.0001Z" stroke="white" stroke-width="3" stroke-linecap="round" stroke-linejoin="round"/>
<path d="M20.7589 1.61676C20.3588 1.5 19.9059 1.5 19 1.5C18.0941 1.5 17.6412 1.5 17.2411 1.61676C16.6554 1.78766 16.138 2.13793 15.7617 2.61827C15.5047 2.94643 15.3365 3.36698 15.0001 4.20807C14.5165 5.41712 13.1743 6.03971 11.9389 5.62806L10.829 5.25824C10.0417 4.99582 9.6481 4.86459 9.26214 4.84211C8.6952 4.80908 8.13094 4.94229 7.63863 5.22536C7.30349 5.41808 7.01009 5.71149 6.42327 6.29831C5.79959 6.92199 5.48774 7.23382 5.28964 7.58979C4.99858 8.11274 4.87546 8.71261 4.93698 9.30794C4.97884 9.71314 5.14263 10.1226 5.47021 10.9416C5.98321 12.2241 5.48969 13.6893 4.30529 14.4001L3.76569 14.7239C2.93949 15.2196 2.52639 15.4675 2.22633 15.8088C1.96079 16.1107 1.76057 16.4644 1.63823 16.8475C1.5 17.2803 1.5 17.7668 1.5 18.74C1.5 19.8923 1.5 20.4682 1.68398 20.9616C1.84656 21.3973 2.11098 21.7877 2.45519 22.1006C2.84474 22.4545 3.37435 22.6664 4.43351 23.0901C5.51594 23.523 6.07326 24.7246 5.70459 25.8306L5.28624 27.0858C4.99648 27.9549 4.85158 28.3897 4.83842 28.8167C4.82257 29.3302 4.94262 29.8387 5.18641 30.2908C5.38918 30.6671 5.71318 30.991 6.36111 31.6389C7.00906 32.2868 7.33304 32.6107 7.7091 32.8135C8.16128 33.0574 8.66981 33.1775 9.18328 33.1616C9.61032 33.1484 10.045 33.0035 10.9143 32.7138L11.939 32.3721C13.1743 31.9605 14.5165 32.5829 15.0001 33.792C15.3365 34.6329 15.5047 35.0535 15.7617 35.3817C16.138 35.862 16.6554 36.2124 17.2411 36.3833C17.6412 36.5 18.0941 36.5 19 36.5C19.9059 36.5 20.3588 36.5 20.7589 36.3833C21.3446 36.2124 21.862 35.862 22.2383 35.3817C22.4953 35.0535 22.6635 34.6329 22.9999 33.792C23.4835 32.5829 24.8257 31.9605 26.0609 32.3725L27.0848 32.714C27.9542 33.0037 28.3889 33.1486 28.8159 33.1618C29.3295 33.1775 29.8379 33.0576 30.29 32.8137C30.6661 32.6109 30.9902 32.287 31.6381 31.6391C32.286 30.9912 32.6099 30.6671 32.8128 30.291C33.0566 29.8389 33.1766 29.3303 33.1608 28.8169C33.1476 28.3899 33.0027 27.9551 32.713 27.0858L32.2949 25.8316C31.9261 24.7252 32.4836 23.5232 33.5664 23.0901C34.6256 22.6664 35.1552 22.4545 35.5449 22.1006C35.8891 21.7877 36.1535 21.3973 36.3161 20.9616C36.5 20.4682 36.5 19.8923 36.5 18.74C36.5 17.7668 36.5 17.2803 36.3617 16.8475C36.2394 16.4644 36.0392 16.1107 35.7737 15.8088C35.4735 15.4675 35.0605 15.2196 34.2343 14.7239L33.694 14.3998C32.5096 13.6891 32.0159 12.2239 32.5291 10.9414C32.8565 10.1225 33.0204 9.713 33.0622 9.30778C33.1237 8.71245 33.0006 8.11261 32.7095 7.58963C32.5114 7.23368 32.1997 6.92183 31.5759 6.29815C30.9891 5.71136 30.6956 5.41794 30.3606 5.22523C29.8683 4.94213 29.304 4.80894 28.737 4.84196C28.351 4.86445 27.9575 4.99566 27.1702 5.25809L26.0611 5.6278C24.8257 6.03958 23.4835 5.41708 22.9999 4.20807C22.6635 3.36698 22.4953 2.94643 22.2383 2.61827C21.862 2.13793 21.3446 1.78766 20.7589 1.61676Z" stroke="white" stroke-width="3" stroke-linecap="round" stroke-linejoin="round"/>
</svg>
