<svg width="36" height="36" viewBox="0 0 36 36" fill="none" xmlns="http://www.w3.org/2000/svg">
<path d="M35.8791 31.3494L30.7442 10.8086C30.477 9.74058 29.5882 9.00018 28.5736 9.00018H24.3373C24.5883 8.29352 24.7507 7.54327 24.7507 6.75013C24.7507 3.02209 21.7287 0 18.0007 0C14.2727 0 11.2507 3.02209 11.2507 6.75013C11.2507 7.54327 11.4124 8.29352 11.6641 9.00018H7.42778C6.41316 9.00018 5.52371 9.74128 5.25722 10.8086L0.120879 31.3494C-0.464826 33.6916 1.15166 36 3.37706 36H32.6236C34.8483 36 36.4648 33.6916 35.8791 31.3494ZM18 8.99947C16.7597 8.99947 15.75 7.98977 15.75 6.74943C15.75 5.50909 16.7597 4.49939 18 4.49939C19.2403 4.49939 20.25 5.50909 20.25 6.74943C20.25 7.98977 19.2403 8.99947 18 8.99947Z" fill="white"/>
</svg>
