<svg width="36" height="24" viewBox="0 0 36 24" fill="none" xmlns="http://www.w3.org/2000/svg">
<path d="M16.3404 17.9258L14.9405 21.26L14.466 22.3918C14.3141 22.7564 14.4824 23.1726 14.845 23.3271C14.9342 23.3658 15.0297 23.3844 15.1216 23.3844C15.3981 23.3844 15.662 23.2215 15.7745 22.947L17.1117 19.7641L16.7274 18.8484L16.3404 17.9258Z" fill="white"/>
<path d="M35.3522 6.4794C31.5976 7.31388 28.6907 1.80746 25.2503 0.299868C25.1261 0.242537 24.996 0.226612 24.8654 0.241475C24.7969 0.161849 24.7125 0.100271 24.6127 0.0567424C24.2507 -0.0977326 23.8335 0.0742602 23.6816 0.438418L17.9995 13.9744L12.3168 0.438418C12.1656 0.0742602 11.7483 -0.0977326 11.3863 0.0567424C11.287 0.100271 11.2015 0.161849 11.1325 0.241475C11.0025 0.226612 10.8719 0.242537 10.7482 0.299868C7.30729 1.80746 4.40093 7.31388 0.646819 6.4794C0.0883731 6.34881 -0.162715 6.71031 0.11173 7.47844C1.08476 10.1549 2.03232 12.6319 2.95863 14.9591C3.21875 15.6237 3.85894 16.0691 4.37014 15.8328C7.30782 14.5493 9.85586 10.3508 12.871 9.6671C13.3907 9.54713 13.9232 9.5328 14.4752 9.65489C14.5103 9.66339 14.5437 9.6687 14.5745 9.67347C14.6032 9.67825 14.6297 9.67825 14.6552 9.67825L17.2277 15.81L18.0011 17.6467L20.2248 22.9466C20.3384 23.2206 20.6022 23.3841 20.8783 23.3841C20.9701 23.3841 21.0657 23.3655 21.1548 23.3267C21.5174 23.1717 21.6857 22.7561 21.5344 22.3914L18.7719 15.8111V15.8089L21.3443 9.67719C21.4011 9.67719 21.4601 9.66976 21.5248 9.65383C25.2789 8.81882 28.188 14.3252 31.6294 15.8318C32.138 16.0675 32.7803 15.6221 33.043 14.958C33.9688 12.6303 34.9137 10.1539 35.8878 7.47738C36.1633 6.71031 35.9112 6.34881 35.3522 6.4794Z" fill="white"/>
</svg>
